<svg viewBox="0 0 2087.6 2607.21" xmlns="http://www.w3.org/2000/svg" style="background-color: #ffffff;"><path d="m2087.6 379.21a126.86 126.86 0 0 0 -1.3-16.1c-2.2-14.9-6.3-31.7-18.7-45.2-6.8-7.4-24.1-26.1-44-22.6q-93.6 16.5-186.5 34.2c-118.2 21.1-236.7 40.9-352 66.6-108.3 24.2-215.9 49.7-321.8 76.9-104.5 26.8-206.2 55.9-304.3 89.3q-122.4 41.69-240.3 87.1 88.95-61.2 186.9-117.7c47.3-27.2 97.5-53.1 148.3-78.3 47-23.4 98.1-43.2 147.6-64.8 48.2-21 97.8-41.1 146.1-62q71.25-30.9 145.2-60c51.2-20.2 104.8-38.6 155.5-59.1 49.6-20 101.2-38.7 152.6-57.3 16.9-6.1 25.4-26.3 28.2-35.5a112 112 0 0 0 3.7-48.8c-1.9-14.4-5.1-30.4-15.7-43.7-5.1-6.4-18.6-24.8-36.3-21.9-78.3 12.9-155.4 27.9-233.4 41.2q-118.05 20.1-233.9 43.8c-158.6 32.1-314.1 68.5-467.1 107.9-89.4 23.2-178.4 46.5-268.3 69.1-16 4-25.3 22-28.6 29.7-6.5 15.2-7.6 33.8-2.9 49.2 4.5 14.6 21.5 56 63.5 43.7 159.5-46.91 325.6-86.91 494.4-122.7l-3.9 2.1c-87.4 49.6-175.5 98.5-259.8 149.8a3073.08 3073.08 0 0 0 -255.8 173.6 3184.29 3184.29 0 0 0 -284.3 243.4c-26.9 25.8-24.8 62.6-15.6 90.7 3.5 10.8 23.2 56.6 58.5 41.2 194.4-85.01 396.9-164.4 611.4-233.3 87.4-28.1 176.6-54.9 266.4-80.8q-105 53.4-204.3 110.2c-94.3 54-183.4 110.5-269.5 168.4-6.8 4.6-13.6 9.1-20.4 13.7 4.7-3.2 9.5-6.3 14.2-9.5-174 116.2-338 237.1-478.9 366.4q-65.25 59.89-126.5 120.8c-19.8 19.6-30 38.7-34 61.3a204.87 204.87 0 0 0 -2 30v1097h2087.6z" fill="#efefef"/></svg>